<svg xmlns="http://www.w3.org/2000/svg" xmlns:xlink="http://www.w3.org/1999/xlink" width="250" zoomAndPan="magnify" viewBox="0 0 187.5 74.999997" height="100" preserveAspectRatio="xMidYMid meet" version="1.0"><defs><g/><clipPath id="87a03a78fe"><path d="M 9 2.980469 L 50 2.980469 L 50 45 L 9 45 Z M 9 2.980469 " clip-rule="nonzero"/></clipPath><clipPath id="e9e0d3f45c"><path d="M 5.804688 33 L 53.054688 33 L 53.054688 69.730469 L 5.804688 69.730469 Z M 5.804688 33 " clip-rule="nonzero"/></clipPath><clipPath id="bde735db71"><path d="M 11.464844 46.839844 L 20.464844 46.839844 L 20.464844 55.839844 L 11.464844 55.839844 Z M 11.464844 46.839844 " clip-rule="nonzero"/></clipPath><clipPath id="c18f5b4372"><path d="M 24.949219 46.839844 L 33.949219 46.839844 L 33.949219 55.839844 L 24.949219 55.839844 Z M 24.949219 46.839844 " clip-rule="nonzero"/></clipPath><clipPath id="8efc610c73"><path d="M 38.433594 46.839844 L 47.433594 46.839844 L 47.433594 55.839844 L 38.433594 55.839844 Z M 38.433594 46.839844 " clip-rule="nonzero"/></clipPath></defs><g clip-path="url(#87a03a78fe)"><path fill="#0064e8" d="M 29.433594 2.980469 C 18.375 2.980469 9.476562 11.851562 9.476562 22.871094 L 9.476562 44.96875 L 15.019531 44.96875 L 15.019531 22.871094 C 15.019531 14.914062 21.445312 8.507812 29.433594 8.507812 C 37.417969 8.507812 43.84375 14.914062 43.84375 22.871094 L 43.84375 44.96875 L 49.386719 44.96875 L 49.386719 22.871094 C 49.386719 11.851562 40.488281 2.980469 29.433594 2.980469 Z M 29.433594 2.980469 " fill-opacity="1" fill-rule="evenodd"/></g><g clip-path="url(#e9e0d3f45c)"><path fill="#0064e8" d="M 6.132812 33.371094 L 52.730469 33.371094 C 52.808594 33.371094 52.871094 33.398438 52.925781 33.449219 C 52.980469 33.503906 53.007812 33.570312 53.007812 33.644531 L 53.007812 69.46875 C 53.007812 69.542969 52.980469 69.609375 52.925781 69.660156 C 52.871094 69.714844 52.808594 69.742188 52.730469 69.742188 L 6.132812 69.742188 C 6.054688 69.742188 5.992188 69.714844 5.9375 69.660156 C 5.882812 69.609375 5.855469 69.542969 5.855469 69.46875 L 5.855469 33.644531 C 5.855469 33.570312 5.882812 33.503906 5.9375 33.449219 C 5.992188 33.398438 6.054688 33.371094 6.132812 33.371094 " fill-opacity="1" fill-rule="evenodd"/></g><g clip-path="url(#bde735db71)"><path fill="#ffffff" d="M 15.964844 46.839844 C 13.480469 46.839844 11.464844 48.851562 11.464844 51.339844 C 11.464844 53.824219 13.480469 55.839844 15.964844 55.839844 C 18.453125 55.839844 20.464844 53.824219 20.464844 51.339844 C 20.464844 48.851562 18.453125 46.839844 15.964844 46.839844 " fill-opacity="1" fill-rule="nonzero"/></g><g clip-path="url(#c18f5b4372)"><path fill="#ffffff" d="M 29.449219 46.839844 C 26.964844 46.839844 24.949219 48.851562 24.949219 51.339844 C 24.949219 53.824219 26.964844 55.839844 29.449219 55.839844 C 31.933594 55.839844 33.949219 53.824219 33.949219 51.339844 C 33.949219 48.851562 31.933594 46.839844 29.449219 46.839844 " fill-opacity="1" fill-rule="nonzero"/></g><g clip-path="url(#8efc610c73)"><path fill="#ffffff" d="M 42.933594 46.839844 C 40.449219 46.839844 38.433594 48.851562 38.433594 51.339844 C 38.433594 53.824219 40.449219 55.839844 42.933594 55.839844 C 45.417969 55.839844 47.433594 53.824219 47.433594 51.339844 C 47.433594 48.851562 45.417969 46.839844 42.933594 46.839844 " fill-opacity="1" fill-rule="nonzero"/></g><g fill="#000000" fill-opacity="1"><g transform="translate(59.243903, 52.087579)"><g><path d="M 2.359375 0 L 2.359375 -16.796875 L 4.859375 -16.796875 L 4.859375 -14.171875 L 5.078125 -14.171875 C 5.421875 -15.066406 5.984375 -15.765625 6.765625 -16.265625 C 7.546875 -16.765625 8.484375 -17.015625 9.578125 -17.015625 C 10.679688 -17.015625 11.601562 -16.765625 12.34375 -16.265625 C 13.082031 -15.765625 13.660156 -15.066406 14.078125 -14.171875 L 14.25 -14.171875 C 14.6875 -15.035156 15.332031 -15.722656 16.1875 -16.234375 C 17.050781 -16.753906 18.082031 -17.015625 19.28125 -17.015625 C 20.78125 -17.015625 22.003906 -16.546875 22.953125 -15.609375 C 23.910156 -14.671875 24.390625 -13.210938 24.390625 -11.234375 L 24.390625 0 L 21.8125 0 L 21.8125 -11.234375 C 21.8125 -12.472656 21.472656 -13.359375 20.796875 -13.890625 C 20.117188 -14.421875 19.320312 -14.6875 18.40625 -14.6875 C 17.226562 -14.6875 16.3125 -14.332031 15.65625 -13.625 C 15.007812 -12.914062 14.6875 -12.019531 14.6875 -10.9375 L 14.6875 0 L 12.0625 0 L 12.0625 -11.5 C 12.0625 -12.457031 11.75 -13.226562 11.125 -13.8125 C 10.507812 -14.394531 9.71875 -14.6875 8.75 -14.6875 C 8.070312 -14.6875 7.441406 -14.507812 6.859375 -14.15625 C 6.285156 -13.800781 5.820312 -13.304688 5.46875 -12.671875 C 5.113281 -12.046875 4.9375 -11.320312 4.9375 -10.5 L 4.9375 0 Z M 2.359375 0 "/></g></g></g><g fill="#000000" fill-opacity="1"><g transform="translate(85.991071, 52.087579)"><g><path d="M 9.40625 0.34375 C 7.78125 0.34375 6.382812 -0.0078125 5.21875 -0.71875 C 4.050781 -1.4375 3.148438 -2.441406 2.515625 -3.734375 C 1.890625 -5.035156 1.578125 -6.546875 1.578125 -8.265625 C 1.578125 -9.984375 1.890625 -11.5 2.515625 -12.8125 C 3.148438 -14.132812 4.03125 -15.164062 5.15625 -15.90625 C 6.289062 -16.644531 7.617188 -17.015625 9.140625 -17.015625 C 10.015625 -17.015625 10.875 -16.867188 11.71875 -16.578125 C 12.570312 -16.285156 13.347656 -15.8125 14.046875 -15.15625 C 14.753906 -14.5 15.316406 -13.632812 15.734375 -12.5625 C 16.148438 -11.5 16.359375 -10.179688 16.359375 -8.609375 L 16.359375 -7.515625 L 4.171875 -7.515625 C 4.222656 -5.722656 4.726562 -4.347656 5.6875 -3.390625 C 6.644531 -2.441406 7.882812 -1.96875 9.40625 -1.96875 C 10.414062 -1.96875 11.285156 -2.1875 12.015625 -2.625 C 12.742188 -3.0625 13.269531 -3.71875 13.59375 -4.59375 L 16.09375 -3.890625 C 15.695312 -2.617188 14.90625 -1.59375 13.71875 -0.8125 C 12.539062 -0.0390625 11.101562 0.34375 9.40625 0.34375 Z M 4.171875 -9.75 L 13.734375 -9.75 C 13.734375 -11.164062 13.316406 -12.34375 12.484375 -13.28125 C 11.648438 -14.21875 10.535156 -14.6875 9.140625 -14.6875 C 8.148438 -14.6875 7.296875 -14.457031 6.578125 -14 C 5.859375 -13.539062 5.289062 -12.929688 4.875 -12.171875 C 4.457031 -11.421875 4.222656 -10.613281 4.171875 -9.75 Z M 4.171875 -9.75 "/></g></g></g><g fill="#000000" fill-opacity="1"><g transform="translate(103.909924, 52.087579)"><g><path d="M 9.1875 0.34375 C 7.613281 0.34375 6.253906 -0.0234375 5.109375 -0.765625 C 3.972656 -1.503906 3.097656 -2.523438 2.484375 -3.828125 C 1.878906 -5.140625 1.578125 -6.632812 1.578125 -8.3125 C 1.578125 -10.007812 1.890625 -11.515625 2.515625 -12.828125 C 3.148438 -14.140625 4.03125 -15.164062 5.15625 -15.90625 C 6.289062 -16.644531 7.617188 -17.015625 9.140625 -17.015625 C 10.316406 -17.015625 11.378906 -16.796875 12.328125 -16.359375 C 13.273438 -15.921875 14.050781 -15.304688 14.65625 -14.515625 C 15.257812 -13.722656 15.632812 -12.804688 15.78125 -11.765625 L 13.203125 -11.765625 C 13.003906 -12.523438 12.566406 -13.203125 11.890625 -13.796875 C 11.222656 -14.390625 10.320312 -14.6875 9.1875 -14.6875 C 7.675781 -14.6875 6.457031 -14.113281 5.53125 -12.96875 C 4.613281 -11.820312 4.15625 -10.296875 4.15625 -8.390625 C 4.15625 -6.441406 4.609375 -4.882812 5.515625 -3.71875 C 6.429688 -2.550781 7.65625 -1.96875 9.1875 -1.96875 C 10.1875 -1.96875 11.046875 -2.222656 11.765625 -2.734375 C 12.484375 -3.253906 12.960938 -3.972656 13.203125 -4.890625 L 15.78125 -4.890625 C 15.632812 -3.898438 15.273438 -3.007812 14.703125 -2.21875 C 14.128906 -1.425781 13.375 -0.800781 12.4375 -0.34375 C 11.507812 0.113281 10.425781 0.34375 9.1875 0.34375 Z M 9.1875 0.34375 "/></g></g></g><g fill="#000000" fill-opacity="1"><g transform="translate(121.085804, 52.087579)"><g><path d="M 2.359375 0 L 2.359375 -16.796875 L 4.859375 -16.796875 L 4.859375 -14.25 L 5.03125 -14.25 C 5.320312 -15.082031 5.867188 -15.753906 6.671875 -16.265625 C 7.472656 -16.785156 8.382812 -17.046875 9.40625 -17.046875 C 9.863281 -17.046875 10.269531 -16.988281 10.625 -16.875 C 10.976562 -16.769531 11.285156 -16.625 11.546875 -16.4375 L 10.671875 -14.25 C 10.484375 -14.34375 10.265625 -14.414062 10.015625 -14.46875 C 9.773438 -14.53125 9.5 -14.5625 9.1875 -14.5625 C 7.957031 -14.5625 6.941406 -14.1875 6.140625 -13.4375 C 5.335938 -12.6875 4.9375 -11.75 4.9375 -10.625 L 4.9375 0 Z M 2.359375 0 "/></g></g></g><g fill="#000000" fill-opacity="1"><g transform="translate(132.88603, 52.087579)"><g><path d="M 3.9375 6.515625 C 3.5 6.515625 3.109375 6.476562 2.765625 6.40625 C 2.421875 6.34375 2.1875 6.273438 2.0625 6.203125 L 2.703125 3.9375 C 3.648438 4.175781 4.4375 4.171875 5.0625 3.921875 C 5.695312 3.671875 6.238281 2.914062 6.6875 1.65625 L 7.265625 0.09375 L 1.046875 -16.796875 L 3.84375 -16.796875 L 8.484375 -3.40625 L 8.65625 -3.40625 L 13.296875 -16.796875 L 16.09375 -16.796875 L 8.875 2.703125 C 7.925781 5.242188 6.28125 6.515625 3.9375 6.515625 Z M 3.9375 6.515625 "/></g></g></g><g fill="#000000" fill-opacity="1"><g transform="translate(150.01821, 52.087579)"><g><path d="M 2.359375 6.296875 L 2.359375 -16.796875 L 4.859375 -16.796875 L 4.859375 -14.125 L 5.15625 -14.125 C 5.34375 -14.414062 5.601562 -14.785156 5.9375 -15.234375 C 6.28125 -15.691406 6.769531 -16.101562 7.40625 -16.46875 C 8.050781 -16.832031 8.921875 -17.015625 10.015625 -17.015625 C 11.429688 -17.015625 12.675781 -16.660156 13.75 -15.953125 C 14.832031 -15.242188 15.675781 -14.238281 16.28125 -12.9375 C 16.882812 -11.644531 17.1875 -10.113281 17.1875 -8.34375 C 17.1875 -6.570312 16.882812 -5.035156 16.28125 -3.734375 C 15.675781 -2.429688 14.835938 -1.425781 13.765625 -0.71875 C 12.691406 -0.0078125 11.457031 0.34375 10.0625 0.34375 C 8.976562 0.34375 8.113281 0.164062 7.46875 -0.1875 C 6.820312 -0.550781 6.320312 -0.960938 5.96875 -1.421875 C 5.613281 -1.890625 5.34375 -2.273438 5.15625 -2.578125 L 4.9375 -2.578125 L 4.9375 6.296875 Z M 4.890625 -8.390625 C 4.890625 -6.492188 5.300781 -4.945312 6.125 -3.75 C 6.957031 -2.5625 8.148438 -1.96875 9.703125 -1.96875 C 10.785156 -1.96875 11.6875 -2.253906 12.40625 -2.828125 C 13.132812 -3.398438 13.679688 -4.171875 14.046875 -5.140625 C 14.421875 -6.117188 14.609375 -7.203125 14.609375 -8.390625 C 14.609375 -9.578125 14.425781 -10.644531 14.0625 -11.59375 C 13.695312 -12.539062 13.148438 -13.289062 12.421875 -13.84375 C 11.703125 -14.40625 10.796875 -14.6875 9.703125 -14.6875 C 8.128906 -14.6875 6.929688 -14.109375 6.109375 -12.953125 C 5.296875 -11.796875 4.890625 -10.273438 4.890625 -8.390625 Z M 4.890625 -8.390625 "/></g></g></g><g fill="#000000" fill-opacity="1"><g transform="translate(168.767437, 52.087579)"><g><path d="M 9.65625 -16.796875 L 9.65625 -14.609375 L 6.078125 -14.609375 L 6.078125 -4.8125 C 6.078125 -4.082031 6.179688 -3.535156 6.390625 -3.171875 C 6.609375 -2.816406 6.882812 -2.578125 7.21875 -2.453125 C 7.5625 -2.335938 7.925781 -2.28125 8.3125 -2.28125 C 8.59375 -2.28125 8.820312 -2.296875 9 -2.328125 C 9.1875 -2.359375 9.332031 -2.382812 9.4375 -2.40625 L 9.96875 -0.09375 C 9.789062 -0.0195312 9.546875 0.046875 9.234375 0.109375 C 8.921875 0.179688 8.523438 0.21875 8.046875 0.21875 C 7.316406 0.21875 6.601562 0.0625 5.90625 -0.25 C 5.207031 -0.5625 4.628906 -1.035156 4.171875 -1.671875 C 3.722656 -2.316406 3.5 -3.128906 3.5 -4.109375 L 3.5 -14.609375 L 0.96875 -14.609375 L 0.96875 -16.796875 L 3.5 -16.796875 L 3.5 -20.8125 L 6.078125 -20.8125 L 6.078125 -16.796875 Z M 9.65625 -16.796875 "/></g></g></g></svg>